<?xml version="1.0" encoding="utf-8"?>
<!-- Generator: Adobe Illustrator 16.0.0, SVG Export Plug-In . SVG Version: 6.00 Build 0)  -->
<!DOCTYPE svg PUBLIC "-//W3C//DTD SVG 1.1//EN" "http://www.w3.org/Graphics/SVG/1.1/DTD/svg11.dtd">
<svg version="1.1" id="Layer_1" xmlns="http://www.w3.org/2000/svg" xmlns:xlink="http://www.w3.org/1999/xlink" x="0px" y="0px"
	 width="125px" height="88px" viewBox="0 0 125 88" enable-background="new 0 0 125 88" xml:space="preserve">
<path fill="#1A71B9" d="M125.06,83.063V88h-5.003l0,0h-12.366l0,0h-4.998l0,0h-12.57l0,0h-4.985l0,0H72.569l0,0h-4.993l0,0H54.999
	l0,0h-4.985l0,0H37.449l0,0h-4.992l0,0H19.872l0,0h-5.004l0,0H0.014V75.436H0v-4.997h0.014V57.867H0v-4.986h0.014V40.312H0v-4.996
	h0.014V22.744H0v-4.988h0.014V6.686H0V1.689h5.01v81.326h120.05V83.063z"/>
<path fill="#1A71B9" d="M111.116,3.419c-5.4,0-9.778,4.377-9.778,9.778c0,1.693,0.43,3.286,1.188,4.674L86.857,32.378
	c-1.718-1.5-3.966-2.409-6.426-2.409c-3.247,0-6.124,1.583-7.902,4.02l-15.141-6.765c0.148-0.678,0.228-1.381,0.228-2.104
	c0-5.4-4.377-9.777-9.778-9.777c-5.4,0-9.778,4.377-9.778,9.777c0,2.937,1.295,5.571,3.345,7.363L31.039,51.095
	c-0.534-0.09-1.083-0.138-1.643-0.138c-5.4,0-9.778,4.377-9.778,9.778c0,5.4,4.377,9.778,9.778,9.778c5.4,0,9.778-4.378,9.778-9.778
	c0-3.07-1.415-5.809-3.628-7.601l10.273-18.444c0.652,0.137,1.327,0.209,2.02,0.209c2.905,0,5.514-1.267,7.305-3.279l15.58,6.961
	c-0.045,0.383-0.07,0.772-0.07,1.167c0,5.4,4.378,9.778,9.778,9.778c5.4,0,9.778-4.377,9.778-9.778c0-1.137-0.195-2.229-0.552-3.244
	l16.24-15.037c1.51,0.955,3.3,1.508,5.219,1.508c5.4,0,9.777-4.378,9.777-9.778C120.893,7.796,116.516,3.419,111.116,3.419z"/>
</svg>
