<?xml version="1.0" encoding="utf-8"?>
<!-- Generator: Adobe Illustrator 16.0.0, SVG Export Plug-In . SVG Version: 6.00 Build 0)  -->
<!DOCTYPE svg PUBLIC "-//W3C//DTD SVG 1.1//EN" "http://www.w3.org/Graphics/SVG/1.1/DTD/svg11.dtd">
<svg version="1.1" id="Layer_1" xmlns="http://www.w3.org/2000/svg" xmlns:xlink="http://www.w3.org/1999/xlink" x="0px" y="0px"
	 width="138.5px" height="85.75px" viewBox="0 0 138.5 85.75" enable-background="new 0 0 138.5 85.75" xml:space="preserve">
<path fill="#FAB622" d="M58.636,23.547c0,9.897-8.024,17.92-17.921,17.92c-9.897,0-17.921-8.023-17.921-17.92
	c0-9.896,8.024-17.921,17.921-17.921C50.612,5.626,58.636,13.652,58.636,23.547 M80.346,80.657
	C80.178,60.555,62.498,45.31,40.695,45.31c-21.801,0-39.479,16.245-39.649,36.348H1.033v1.803c0,0.84,0.745,1.531,1.654,1.531
	h76.058c0.905,0,1.652-0.69,1.652-1.531v-1.803L80.346,80.657z"/>
<path fill="#FAB622" d="M130.465,0H55.834c-3.582,0-6.201,2.137-7.239,5.374c2.985,0.533,4.051,1.386,5.716,3.129h75.686v49.603
	H73.892c2.983,3.3,5.532,7.55,7.17,12.769l49.402-0.014c4.438,0,8.035-3.597,8.035-8.036V8.036C138.5,3.596,134.903,0,130.465,0z"/>
</svg>
