<?xml version="1.0" encoding="utf-8"?>
<!-- Generator: Adobe Illustrator 16.0.0, SVG Export Plug-In . SVG Version: 6.00 Build 0)  -->
<!DOCTYPE svg PUBLIC "-//W3C//DTD SVG 1.1//EN" "http://www.w3.org/Graphics/SVG/1.1/DTD/svg11.dtd">
<svg version="1.1" id="Layer_1" xmlns="http://www.w3.org/2000/svg" xmlns:xlink="http://www.w3.org/1999/xlink" x="0px" y="0px"
	 width="131px" height="89px" viewBox="0 0 131 89" enable-background="new 0 0 131 89" xml:space="preserve">
<path fill="#E73A2C" d="M5.382,56.709V6.07h96.83V26.7h5.272V5.637c0-2.627-2.147-4.759-4.798-4.759H5.166
	c-2.647,0-4.795,2.132-4.795,4.759V66.27c0,2.628,2.148,4.758,4.795,4.758h35.609v14.334h-6.504v1.267h39.441v-1.267h-7.067V71.156
	h8.577V56.709H5.382z"/>
<path fill="#E73A2C" d="M108.688,86.485v-4.008H81.756v-8.956V58.816h-1.889v14.705v12.371c0,1.644,1.343,2.973,2.998,2.973h28.221
	C109.76,88.864,108.688,87.802,108.688,86.485z"/>
<path fill="#E73A2C" d="M115.727,28.937h-3.598v-0.001h-4.882H82.865c-1.657,0-2.998,1.333-2.998,2.975v26.903h1.889V36.207h25.491
	h4.882v0.001h4.49v16.743h2.107v-21.04C118.725,30.268,117.382,28.937,115.727,28.937z"/>
<path fill="#E73A2C" d="M128.678,54.196h-5.327h-2.107h-4.49h-1.042c-1.327,0-2.399,1.065-2.399,2.38v17.995v9.151h0.001v2.747
	c0,1.316,1.072,2.379,2.399,2.379h4.639h0.002h8.323c1.326,0,2.398-1.065,2.398-2.381v-29.89
	C131.076,55.261,130.003,54.196,128.678,54.196z M130.298,85.1h-6.944h-0.002h-9.263v-1.378v-1.262v-8.194V58.052h2.666h4.49h2.107
	h6.947V85.1z"/>
</svg>
